  0
SECTION
  2
HEADER
  9
$ANGBASE
  50
0.0
  9
$ANGDIR
  70
1
  9
$MEASUREMENT
  70
1
  0
ENDSEC
  0
SECTION
  2
TABLES
  0
TABLE
  2
LTYPE
  70
4
  0
LTYPE
  5
40F
  2
CONTINUOUS
  70
0
  3
Solid line
  72
65
  73
0
  40
0.0
  0
LTYPE
  5
410
  2
DASHDOT
 70
0
  3
Dash Dot ____ _ ____ _
 72
65
 73
4
 40
2.0
 49
1.25
 49
-0.25
 49
0.25
 49
-0.25
  0
LTYPE
  5
411
  2
DASHED
 70
0
  3
Dashed __ __ __ __ __
 72
65
 73
2
 40
0.75
 49
0.5
 49
-0.25
  0
LTYPE
  5
43B
  2
DOTTED
 70
0
  3
Dotted .  .  .  .
 72
65
 73
2
 40
0.2
 49
0.0
 49
-0.2
  0
ENDTAB
  0
TABLE
  2
STYLE
  70
4
  0
STYLE
  2
KICAD
  70
0
  40
0
  41
1
  42
1
  50
0
  71
0
  3
isocp.shx
  0
STYLE
  2
KICADB
  70
0
  40
0
  41
1
  42
1
  50
0
  71
0
  3
isocp.shx
  0
STYLE
  2
KICADI
  70
0
  40
0
  41
1
  42
1
  50
15
  71
0
  3
isocp.shx
  0
STYLE
  2
KICADBI
  70
0
  40
0
  41
1
  42
1
  50
15
  71
0
  3
isocp.shx
  0
ENDTAB
  0
TABLE
  2
LAYER
  70
1
  0
LAYER
  2
BLACK
  70
0
  62
7
  6
CONTINUOUS
  0
ENDTAB
  0
ENDSEC
  0
SECTION
  2
ENTITIES
0
ARC
8
BLACK
10
54.9603
20
-55.6375
40
0.652245
50
104.146
51
159.118
0
ARC
8
BLACK
10
93.4444
20
-53.5013
40
0.586518
50
-165.314
51
-104.162
0
ARC
8
BLACK
10
53.7236
20
-60.8715
40
0.629325
50
-73.5321
51
-10.9753
0
ARC
8
BLACK
10
92.2434
20
-50.1378
40
0.652628
50
20.8971
51
75.8357
0
LINE
8
BLACK
6
CONTINUOUS
10
54.3414
20
-60.9913
11
54.3509
21
-55.405
0
LINE
8
BLACK
6
CONTINUOUS
10
92.8531
20
-49.905
11
92.877
21
-53.65
0
LINE
8
BLACK
6
CONTINUOUS
10
92.4031
20
-49.505
11
73.532
21
-49.4739
0
LINE
8
BLACK
6
CONTINUOUS
10
73.147
20
-54.6011
11
73.152
21
-50
0
ARC
8
BLACK
10
72.7113
20
-54.6318
40
0.436767
50
-57.6774
51
4.03007
0
ARC
8
BLACK
10
73.7428
20
-50.0265
40
0.591396
50
110.88
51
177.432
0
LINE
8
BLACK
6
CONTINUOUS
10
54.8009
20
-55.005
11
72.9448
21
-55.0009
0
LINE
8
BLACK
6
CONTINUOUS
10
36.602
20
-67.125
11
53.902
21
-61.475
0
CIRCLE
8
BLACK
10
52.192
20
-66.289
40
1.3
0
LINE
8
BLACK
6
CONTINUOUS
10
35.4659
20
-68.2633
11
35.458
21
-122.569
0
ARC
8
BLACK
10
37.1226
20
-68.7807
40
1.73565
50
107.455
51
162.657
0
ARC
8
BLACK
10
37.458
20
-122.499
40
2.00122
50
-177.995
51
-88.9979
0
LINE
8
BLACK
6
CONTINUOUS
10
37.768
20
-124.501
11
37.493
21
-124.5
0
LINE
8
BLACK
6
CONTINUOUS
10
37.768
20
-124.501
11
53.927
21
-124.5
0
ARC
8
BLACK
10
91.3423
20
-105.833
40
0.652638
50
20.8981
51
75.8361
0
ARC
8
BLACK
10
73.3024
20
-105.926
40
0.707646
50
103.822
51
171.795
0
LINE
8
BLACK
6
CONTINUOUS
10
73.1333
20
-105.239
11
91.502
21
-105.2
0
LINE
8
BLACK
6
CONTINUOUS
10
72.6029
20
-110.485
11
72.602
21
-105.825
0
ARC
8
BLACK
10
71.866
20
-110.379
40
0.744457
50
-75.5309
51
-8.1968
0
LINE
8
BLACK
6
CONTINUOUS
10
93.3009
20
-54.07
11
109.427
21
-54.0643
0
LINE
8
BLACK
6
CONTINUOUS
10
129.325
20
-57.0139
11
112.371
21
-52.5555
0
LINE
8
BLACK
6
CONTINUOUS
10
131.458
20
-81.8949
11
148.162
21
-81.892
0
LINE
8
BLACK
6
CONTINUOUS
10
130.458
20
-80.8949
11
130.463
21
-58.15
0
CIRCLE
8
BLACK
10
112.782
20
-56.389
40
1.3
0
ARC
8
BLACK
10
109.489
20
-53.6372
40
0.431606
50
-98.3127
51
-40.1512
0
ARC
8
BLACK
10
131.458
20
-80.8949
40
1.00002
50
-179.999
51
-90.0001
0
ARC
8
BLACK
10
128.808
20
-58.6704
40
1.7354
50
17.4503
51
72.6614
0
ARC
8
BLACK
10
112.502
20
-55.875
40
3.32213
50
92.2659
51
143.855
0
ARC
8
BLACK
10
148.162
20
-82.642
40
0.749998
50
-0.000152789
51
90.0002
0
ARC
8
BLACK
10
60.7742
20
-115.461
40
0.652682
50
-69.1004
51
-14.1667
0
ARC
8
BLACK
10
53.7233
20
-123.766
40
0.761479
50
-74.486
51
-8.20958
0
ARC
8
BLACK
10
62.0357
20
-111.698
40
0.641188
50
110.892
51
171.215
0
LINE
8
BLACK
6
CONTINUOUS
10
54.477
20
-123.875
11
54.477
21
-119.395
0
LINE
8
BLACK
6
CONTINUOUS
10
61.407
20
-115.621
11
61.402
21
-111.6
0
LINE
8
BLACK
6
CONTINUOUS
10
55.002
20
-118.715
11
61.007
21
-116.071
0
ARC
8
BLACK
10
55.1791
20
-119.394
40
0.702102
50
-255.39
51
-179.951
0
LINE
8
BLACK
6
CONTINUOUS
10
91.952
20
-105.6
11
101.201
21
-130.94
0
LINE
8
BLACK
6
CONTINUOUS
10
148.912
20
-113.755
11
148.924
21
-116.274
0
LINE
8
BLACK
6
CONTINUOUS
10
147.162
20
-123.64
11
135.71
21
-143.725
0
CIRCLE
8
BLACK
10
139.202
20
-125.239
40
1.3
0
ARC
8
BLACK
10
132.106
20
-116.144
40
16.8187
50
-26.4676
51
-0.4439
0
ARC
8
BLACK
10
79.6096
20
-228.257
40
99.4635
50
57.55
51
77.2405
0
LINE
8
BLACK
6
CONTINUOUS
10
61.807
20
-111.099
11
72.052
21
-111.1
0
ARC
8
BLACK
10
134.048
20
-142.674
40
1.96657
50
-122.963
51
-32.3147
0
ARC
8
BLACK
10
101.636
20
-130.795
40
0.458402
50
-161.583
51
-97.3826
0
LINE
8
BLACK
6
CONTINUOUS
10
148.912
20
-82.642
11
148.912
21
-113.755
0
CIRCLE
8
BLACK
10
57.402
20
-113.539
40
1.3
  0
ENDSEC
  0
EOF
