  0
SECTION
  2
HEADER
  9
$ANGBASE
  50
0.0
  9
$ANGDIR
  70
1
  9
$MEASUREMENT
  70
1
  0
ENDSEC
  0
SECTION
  2
TABLES
  0
TABLE
  2
LTYPE
  70
4
  0
LTYPE
  5
40F
  2
CONTINUOUS
  70
0
  3
Solid line
  72
65
  73
0
  40
0.0
  0
LTYPE
  5
410
  2
DASHDOT
 70
0
  3
Dash Dot ____ _ ____ _
 72
65
 73
4
 40
2.0
 49
1.25
 49
-0.25
 49
0.25
 49
-0.25
  0
LTYPE
  5
411
  2
DASHED
 70
0
  3
Dashed __ __ __ __ __
 72
65
 73
2
 40
0.75
 49
0.5
 49
-0.25
  0
LTYPE
  5
43B
  2
DOTTED
 70
0
  3
Dotted .  .  .  .
 72
65
 73
2
 40
0.2
 49
0.0
 49
-0.2
  0
ENDTAB
  0
TABLE
  2
STYLE
  70
4
  0
STYLE
  2
KICAD
  70
0
  40
0
  41
1
  42
1
  50
0
  71
0
  3
isocp.shx
  0
STYLE
  2
KICADB
  70
0
  40
0
  41
1
  42
1
  50
0
  71
0
  3
isocp.shx
  0
STYLE
  2
KICADI
  70
0
  40
0
  41
1
  42
1
  50
15
  71
0
  3
isocp.shx
  0
STYLE
  2
KICADBI
  70
0
  40
0
  41
1
  42
1
  50
15
  71
0
  3
isocp.shx
  0
ENDTAB
  0
TABLE
  2
LAYER
  70
1
  0
LAYER
  2
BLACK
  70
0
  62
7
  6
CONTINUOUS
  0
ENDTAB
  0
ENDSEC
  0
SECTION
  2
ENTITIES
0
LINE
8
BLACK
6
CONTINUOUS
10
37.835
20
-124.899
11
53.994
21
-124.899
0
LINE
8
BLACK
6
CONTINUOUS
10
54.924
20
-118.698
11
61.064
21
-116
0
ARC
8
BLACK
10
91.6452
20
-107.159
40
0.729752
50
20.8974
51
90.6997
0
ARC
8
BLACK
10
79.6766
20
-228.656
40
99.4634
50
57.55
51
77.2405
0
CIRCLE
8
BLACK
10
112.776
20
-56.374
40
1.3
0
LINE
8
BLACK
6
CONTINUOUS
10
93.3679
20
-54.4687
11
109.494
21
-54.463
0
ARC
8
BLACK
10
60.8312
20
-115.39
40
0.652609
50
-69.1037
51
-14.1633
0
ARC
8
BLACK
10
53.7906
20
-61.2703
40
0.629314
50
-73.5302
51
-10.9693
0
ARC
8
BLACK
10
112.558
20
-56.2685
40
3.32207
50
92.2651
51
143.855
0
ARC
8
BLACK
10
130.944
20
-113.268
40
0.460656
50
-163.465
51
-97.3578
0
ARC
8
BLACK
10
71.9408
20
-111.188
40
0.735361
50
-75.5312
51
-7.48767
0
ARC
8
BLACK
10
134.115
20
-143.073
40
1.96659
50
-122.962
51
-32.3154
0
ARC
8
BLACK
10
146.439
20
-123.678
40
0.868387
50
-24.5139
51
20.4989
0
ARC
8
BLACK
10
72.7783
20
-55.0305
40
0.436767
50
-57.6795
51
4.02573
0
LINE
8
BLACK
6
CONTINUOUS
10
130.502
20
-113.399
11
130.527
21
-58.424
0
LINE
8
BLACK
6
CONTINUOUS
10
72.6699
20
-111.283
11
72.6509
21
-107.074
0
LINE
8
BLACK
6
CONTINUOUS
10
147.229
20
-124.038
11
135.777
21
-144.124
0
ARC
8
BLACK
10
62.1039
20
-112.503
40
0.644451
50
110.376
51
171.212
0
ARC
8
BLACK
10
55.0273
20
-56.0362
40
0.652231
50
104.146
51
159.121
0
LINE
8
BLACK
6
CONTINUOUS
10
73.214
20
-54.9998
11
73.219
21
-50.3987
0
ARC
8
BLACK
10
92.3104
20
-50.5365
40
0.652597
50
20.8944
51
75.8348
0
CIRCLE
8
BLACK
10
52.177
20
-66.299
40
1.3
0
ARC
8
BLACK
10
73.3565
20
-107.176
40
0.712864
50
97.1571
51
171.797
0
CIRCLE
8
BLACK
10
57.402
20
-113.524
40
1.3
0
ARC
8
BLACK
10
73.8098
20
-50.4252
40
0.591392
50
110.88
51
177.435
0
ARC
8
BLACK
10
53.7903
20
-124.165
40
0.761503
50
-74.4842
51
-8.20932
0
LINE
8
BLACK
6
CONTINUOUS
10
54.4084
20
-61.39
11
54.4179
21
-55.8037
0
LINE
8
BLACK
6
CONTINUOUS
10
61.8795
20
-111.898
11
72.1245
21
-111.9
0
LINE
8
BLACK
6
CONTINUOUS
10
54.544
20
-124.274
11
54.544
21
-119.199
0
LINE
8
BLACK
6
CONTINUOUS
10
61.464
20
-115.55
11
61.467
21
-112.404
0
CIRCLE
8
BLACK
10
139.202
20
-125.224
40
1.3
0
LINE
8
BLACK
6
CONTINUOUS
10
37.835
20
-124.899
11
37.56
21
-124.899
0
LINE
8
BLACK
6
CONTINUOUS
10
92.9201
20
-50.3037
11
92.944
21
-54.0487
0
LINE
8
BLACK
6
CONTINUOUS
10
92.4701
20
-49.9037
11
73.599
21
-49.8726
0
ARC
8
BLACK
10
37.525
20
-122.898
40
2.00126
50
-177.994
51
-88.9978
0
LINE
8
BLACK
6
CONTINUOUS
10
130.885
20
-113.725
11
147.252
21
-123.374
0
ARC
8
BLACK
10
101.703
20
-131.194
40
0.458111
50
-161.607
51
-97.3618
0
LINE
8
BLACK
6
CONTINUOUS
10
54.8679
20
-55.4037
11
73.0118
21
-55.3996
0
ARC
8
BLACK
10
128.871
20
-58.9446
40
1.73565
50
17.4547
51
72.6571
0
LINE
8
BLACK
6
CONTINUOUS
10
129.389
20
-57.2879
11
112.427
21
-52.949
0
ARC
8
BLACK
10
55.136
20
-119.253
40
0.594482
50
110.892
51
174.763
0
LINE
8
BLACK
6
CONTINUOUS
10
92.327
20
-106.899
11
101.268
21
-131.339
0
LINE
8
BLACK
6
CONTINUOUS
10
35.5329
20
-68.6621
11
35.525
21
-122.968
0
LINE
8
BLACK
6
CONTINUOUS
10
36.669
20
-67.5237
11
53.969
21
-61.8737
0
ARC
8
BLACK
10
93.5112
20
-53.9002
40
0.586306
50
-165.325
51
-104.147
0
ARC
8
BLACK
10
37.1896
20
-69.1795
40
1.73567
50
107.454
51
162.655
0
ARC
8
BLACK
10
109.539
20
-54.0251
40
0.440237
50
-95.8929
51
-40.1618
0
LINE
8
BLACK
6
CONTINUOUS
10
73.2677
20
-106.468
11
91.6363
21
-106.43
0
LINE
8
BLACK
6
CONTINUOUS
10
52
20
-70.5
11
52
21
-83.5
0
LINE
8
BLACK
6
CONTINUOUS
10
38.5
20
-70
11
51.5
21
-70
0
LINE
8
BLACK
6
CONTINUOUS
10
38.5
20
-83.9909
11
51.5
21
-84
0
LINE
8
BLACK
6
CONTINUOUS
10
38
20
-70.5
11
38
21
-83.4909
0
ARC
8
BLACK
10
38.5
20
-83.4909
40
0.500001
50
-180
51
-90.0001
0
ARC
8
BLACK
10
38.5
20
-70.5
40
0.500001
50
90.0001
51
180
0
ARC
8
BLACK
10
51.5
20
-83.5
40
0.5
50
-90
51
-0
0
ARC
8
BLACK
10
51.5
20
-70.5
40
0.5
50
-0
51
90
0
LINE
8
BLACK
6
CONTINUOUS
10
71
20
-58.5
11
71
21
-71.5
0
LINE
8
BLACK
6
CONTINUOUS
10
57.5
20
-58
11
70.5
21
-58
0
LINE
8
BLACK
6
CONTINUOUS
10
57
20
-58.5
11
57
21
-71.4909
0
LINE
8
BLACK
6
CONTINUOUS
10
57.5
20
-71.9909
11
70.5
21
-72
0
ARC
8
BLACK
10
57.5
20
-71.4909
40
0.500001
50
-180
51
-90.0001
0
ARC
8
BLACK
10
57.5
20
-58.5
40
0.500001
50
90.0001
51
180
0
ARC
8
BLACK
10
70.5
20
-58.5
40
0.5
50
-0
51
90
0
ARC
8
BLACK
10
70.5
20
-71.5
40
0.5
50
-90
51
-0
0
LINE
8
BLACK
6
CONTINUOUS
10
76.5
20
-51.86
11
89.5
21
-51.86
0
LINE
8
BLACK
6
CONTINUOUS
10
76.5
20
-65.8509
11
89.5
21
-65.86
0
LINE
8
BLACK
6
CONTINUOUS
10
76
20
-52.36
11
76
21
-65.3509
0
LINE
8
BLACK
6
CONTINUOUS
10
90
20
-52.36
11
90
21
-65.36
0
ARC
8
BLACK
10
76.5
20
-52.36
40
0.500001
50
90.0001
51
180
0
ARC
8
BLACK
10
89.5
20
-65.36
40
0.5
50
-90
51
-0
0
ARC
8
BLACK
10
76.5
20
-65.3509
40
0.500001
50
-180
51
-90.0001
0
ARC
8
BLACK
10
89.5
20
-52.36
40
0.5
50
-0
51
90
0
LINE
8
BLACK
6
CONTINUOUS
10
95.494
20
-70.4229
11
108.494
21
-70.432
0
LINE
8
BLACK
6
CONTINUOUS
10
94.994
20
-56.932
11
94.994
21
-69.9229
0
LINE
8
BLACK
6
CONTINUOUS
10
95.494
20
-56.432
11
108.494
21
-56.432
0
LINE
8
BLACK
6
CONTINUOUS
10
108.994
20
-56.932
11
108.994
21
-69.932
0
ARC
8
BLACK
10
108.494
20
-69.932
40
0.5
50
-90
51
-0
0
ARC
8
BLACK
10
95.494
20
-69.9229
40
0.500001
50
-180
51
-90.0001
0
ARC
8
BLACK
10
108.494
20
-56.932
40
0.5
50
-0
51
90
0
ARC
8
BLACK
10
95.494
20
-56.932
40
0.500001
50
90.0001
51
180
0
LINE
8
BLACK
6
CONTINUOUS
10
128
20
-59.5
11
128
21
-72.5
0
LINE
8
BLACK
6
CONTINUOUS
10
114.5
20
-72.9909
11
127.5
21
-73
0
LINE
8
BLACK
6
CONTINUOUS
10
114
20
-59.5
11
114
21
-72.4909
0
LINE
8
BLACK
6
CONTINUOUS
10
114.5
20
-59
11
127.5
21
-59
0
ARC
8
BLACK
10
127.5
20
-59.5
40
0.5
50
-0
51
90
0
ARC
8
BLACK
10
114.5
20
-72.4909
40
0.500001
50
-180
51
-90.0001
0
ARC
8
BLACK
10
127.5
20
-72.5
40
0.5
50
-90
51
-0
0
ARC
8
BLACK
10
114.5
20
-59.5
40
0.500001
50
90.0001
51
180
0
LINE
8
BLACK
6
CONTINUOUS
10
38
20
-89.5
11
38
21
-102.491
0
LINE
8
BLACK
6
CONTINUOUS
10
52
20
-89.5
11
52
21
-102.5
0
LINE
8
BLACK
6
CONTINUOUS
10
38.5
20
-89
11
51.5
21
-89
0
LINE
8
BLACK
6
CONTINUOUS
10
38.5
20
-102.991
11
51.5
21
-103
0
ARC
8
BLACK
10
51.5
20
-89.5
40
0.5
50
-0
51
90
0
ARC
8
BLACK
10
38.5
20
-89.5
40
0.500001
50
90.0001
51
180
0
ARC
8
BLACK
10
38.5
20
-102.491
40
0.500001
50
-180
51
-90.0001
0
ARC
8
BLACK
10
51.5
20
-102.5
40
0.5
50
-90
51
-0
0
LINE
8
BLACK
6
CONTINUOUS
10
71
20
-77.574
11
71
21
-90.574
0
LINE
8
BLACK
6
CONTINUOUS
10
57.5
20
-77.074
11
70.5
21
-77.074
0
LINE
8
BLACK
6
CONTINUOUS
10
57.5
20
-91.0649
11
70.5
21
-91.074
0
LINE
8
BLACK
6
CONTINUOUS
10
57
20
-77.574
11
57
21
-90.5649
0
ARC
8
BLACK
10
70.5
20
-90.574
40
0.5
50
-90
51
-0
0
ARC
8
BLACK
10
57.5
20
-90.5649
40
0.500001
50
-180
51
-90.0001
0
ARC
8
BLACK
10
57.5
20
-77.574
40
0.500001
50
90.0001
51
180
0
ARC
8
BLACK
10
70.5
20
-77.574
40
0.5
50
-0
51
90
0
LINE
8
BLACK
6
CONTINUOUS
10
76.5
20
-70.878
11
89.5
21
-70.878
0
LINE
8
BLACK
6
CONTINUOUS
10
76.5
20
-84.8689
11
89.5
21
-84.878
0
LINE
8
BLACK
6
CONTINUOUS
10
76
20
-71.378
11
76
21
-84.3689
0
LINE
8
BLACK
6
CONTINUOUS
10
90
20
-71.378
11
90
21
-84.378
0
ARC
8
BLACK
10
89.5
20
-84.378
40
0.5
50
-90
51
-0
0
ARC
8
BLACK
10
89.5
20
-71.378
40
0.5
50
-0
51
90
0
ARC
8
BLACK
10
76.5
20
-71.378
40
0.500001
50
90.0001
51
180
0
ARC
8
BLACK
10
76.5
20
-84.3689
40
0.500001
50
-180
51
-90.0001
0
LINE
8
BLACK
6
CONTINUOUS
10
109
20
-75.95
11
109
21
-88.95
0
LINE
8
BLACK
6
CONTINUOUS
10
95.5
20
-89.4409
11
108.5
21
-89.45
0
LINE
8
BLACK
6
CONTINUOUS
10
95
20
-75.95
11
95
21
-88.9409
0
LINE
8
BLACK
6
CONTINUOUS
10
95.5
20
-75.45
11
108.5
21
-75.45
0
ARC
8
BLACK
10
95.5
20
-75.95
40
0.500001
50
90.0001
51
180
0
ARC
8
BLACK
10
108.5
20
-88.95
40
0.5
50
-90
51
-0
0
ARC
8
BLACK
10
108.5
20
-75.95
40
0.5
50
-0
51
90
0
ARC
8
BLACK
10
95.5
20
-88.9409
40
0.500001
50
-180
51
-90.0001
0
LINE
8
BLACK
6
CONTINUOUS
10
127.98
20
-78.49
11
127.98
21
-91.49
0
LINE
8
BLACK
6
CONTINUOUS
10
114.48
20
-77.99
11
127.48
21
-77.99
0
LINE
8
BLACK
6
CONTINUOUS
10
114.48
20
-91.9809
11
127.48
21
-91.99
0
LINE
8
BLACK
6
CONTINUOUS
10
113.98
20
-78.49
11
113.98
21
-91.4809
0
ARC
8
BLACK
10
127.48
20
-91.49
40
0.5
50
-90
51
-0
0
ARC
8
BLACK
10
114.48
20
-78.49
40
0.500001
50
90.0001
51
180
0
ARC
8
BLACK
10
127.48
20
-78.49
40
0.5
50
-0
51
90
0
ARC
8
BLACK
10
114.48
20
-91.4809
40
0.500001
50
-180
51
-90.0001
0
LINE
8
BLACK
6
CONTINUOUS
10
52
20
-108.5
11
52
21
-121.5
0
LINE
8
BLACK
6
CONTINUOUS
10
38
20
-108.5
11
38
21
-121.491
0
LINE
8
BLACK
6
CONTINUOUS
10
38.5
20
-108
11
51.5
21
-108
0
LINE
8
BLACK
6
CONTINUOUS
10
38.5
20
-121.991
11
51.5
21
-122
0
ARC
8
BLACK
10
51.5
20
-108.5
40
0.5
50
-0
51
90
0
ARC
8
BLACK
10
51.5
20
-121.5
40
0.5
50
-90
51
-0
0
ARC
8
BLACK
10
38.5
20
-121.491
40
0.500001
50
-180
51
-90.0001
0
ARC
8
BLACK
10
38.5
20
-108.5
40
0.500001
50
90.0001
51
180
0
LINE
8
BLACK
6
CONTINUOUS
10
71.008
20
-96.624
11
71.008
21
-109.624
0
LINE
8
BLACK
6
CONTINUOUS
10
57.008
20
-96.624
11
57.008
21
-109.615
0
LINE
8
BLACK
6
CONTINUOUS
10
57.508
20
-96.124
11
70.508
21
-96.124
0
LINE
8
BLACK
6
CONTINUOUS
10
57.508
20
-110.115
11
70.508
21
-110.124
0
ARC
8
BLACK
10
57.508
20
-96.624
40
0.500001
50
90.0001
51
180
0
ARC
8
BLACK
10
57.508
20
-109.615
40
0.500001
50
-180
51
-90.0001
0
ARC
8
BLACK
10
70.508
20
-109.624
40
0.5
50
-90
51
-0
0
ARC
8
BLACK
10
70.508
20
-96.624
40
0.5
50
-0
51
90
0
LINE
8
BLACK
6
CONTINUOUS
10
76
20
-90.396
11
76
21
-103.387
0
LINE
8
BLACK
6
CONTINUOUS
10
90
20
-90.396
11
90
21
-103.396
0
LINE
8
BLACK
6
CONTINUOUS
10
76.5
20
-103.887
11
89.5
21
-103.896
0
LINE
8
BLACK
6
CONTINUOUS
10
76.5
20
-89.896
11
89.5
21
-89.896
0
ARC
8
BLACK
10
76.5
20
-90.396
40
0.500001
50
90.0001
51
180
0
ARC
8
BLACK
10
89.5
20
-90.396
40
0.5
50
-0
51
90
0
ARC
8
BLACK
10
89.5
20
-103.396
40
0.5
50
-90
51
-0
0
ARC
8
BLACK
10
76.5
20
-103.387
40
0.500001
50
-180
51
-90.0001
0
LINE
8
BLACK
6
CONTINUOUS
10
95.5
20
-94.468
11
108.5
21
-94.468
0
LINE
8
BLACK
6
CONTINUOUS
10
95
20
-94.968
11
95
21
-107.959
0
LINE
8
BLACK
6
CONTINUOUS
10
109
20
-94.968
11
109
21
-107.968
0
LINE
8
BLACK
6
CONTINUOUS
10
95.5
20
-108.459
11
108.5
21
-108.468
0
ARC
8
BLACK
10
95.5
20
-94.968
40
0.500001
50
90.0001
51
180
0
ARC
8
BLACK
10
108.5
20
-107.968
40
0.5
50
-90
51
-0
0
ARC
8
BLACK
10
108.5
20
-94.968
40
0.5
50
-0
51
90
0
ARC
8
BLACK
10
95.5
20
-107.959
40
0.500001
50
-180
51
-90.0001
0
LINE
8
BLACK
6
CONTINUOUS
10
128.821
20
-123.192
11
140.079
21
-129.692
0
LINE
8
BLACK
6
CONTINUOUS
10
140.262
20
-130.375
11
133.762
21
-141.633
0
LINE
8
BLACK
6
CONTINUOUS
10
128.138
20
-123.375
11
121.642
21
-134.625
0
LINE
8
BLACK
6
CONTINUOUS
10
121.825
20
-135.308
11
133.079
21
-141.816
0
ARC
8
BLACK
10
133.329
20
-141.383
40
0.5
50
-120
51
-30
0
ARC
8
BLACK
10
122.075
20
-134.875
40
0.500001
50
-210
51
-120
0
ARC
8
BLACK
10
128.571
20
-123.625
40
0.500001
50
60.0001
51
150
0
ARC
8
BLACK
10
139.829
20
-130.125
40
0.5
50
-30
51
60
0
LINE
8
BLACK
6
CONTINUOUS
10
106.805
20
-115.844
11
119.362
21
-119.209
0
LINE
8
BLACK
6
CONTINUOUS
10
103.184
20
-129.358
11
115.739
21
-132.732
0
LINE
8
BLACK
6
CONTINUOUS
10
106.193
20
-116.198
11
102.831
21
-128.746
0
LINE
8
BLACK
6
CONTINUOUS
10
119.716
20
-119.821
11
116.351
21
-132.378
0
ARC
8
BLACK
10
115.868
20
-132.249
40
0.5
50
-105
51
-14.9999
0
ARC
8
BLACK
10
119.233
20
-119.692
40
0.5
50
-14.9999
51
75.0001
0
ARC
8
BLACK
10
103.314
20
-128.875
40
0.5
50
-195
51
-105
0
ARC
8
BLACK
10
106.676
20
-116.327
40
0.500001
50
75.0002
51
165
0
LINE
8
BLACK
6
CONTINUOUS
10
114.48
20
-97.008
11
127.48
21
-97.008
0
LINE
8
BLACK
6
CONTINUOUS
10
113.98
20
-97.508
11
113.98
21
-110.499
0
LINE
8
BLACK
6
CONTINUOUS
10
114.48
20
-110.999
11
127.48
21
-111.008
0
LINE
8
BLACK
6
CONTINUOUS
10
127.98
20
-97.508
11
127.98
21
-110.508
0
ARC
8
BLACK
10
127.48
20
-110.508
40
0.5
50
-90
51
-0
0
ARC
8
BLACK
10
127.48
20
-97.508
40
0.5
50
-0
51
90
0
ARC
8
BLACK
10
114.48
20
-97.508
40
0.500001
50
90.0001
51
180
0
ARC
8
BLACK
10
114.48
20
-110.499
40
0.500001
50
-180
51
-90.0001
  0
ENDSEC
  0
EOF
